<svg id="그룹_1" data-name="그룹 1" xmlns="http://www.w3.org/2000/svg" width="512" height="512" viewBox="0 0 512 512">
  <g id="사각형_1" data-name="사각형 1" fill="#fff" stroke="#707070" stroke-width="1">
    <rect width="512" height="512" stroke="none"/>
    <rect x="0.5" y="0.5" width="511" height="511" fill="none"/>
  </g>
  <path id="패스_1" data-name="패스 1" d="M97,275.9V95.07H413.5V413.719H235.973" transform="translate(0 1.93)" fill="none" stroke="#000" stroke-width="5"/>
  <path id="패스_5" data-name="패스 5" d="M191.258,321.9v-5.02l9.21-5.7s1.888-57.691,1.675-68.63-.4-25.508-1.675-38.443-14.528-7.609-14.528-7.609V189.55s35.082,1.437,49.524,0,86.879-6.718,87.106,60.583-57.1,71.79-71.509,71.766-40.452-1.946-50.593-.82S191.258,321.9,191.258,321.9Z" stroke="#000" stroke-width="1"/>
  <path id="패스_6" data-name="패스 6" d="M221.047,282.867c-1.485-1.113-1.288-40.678-.945-50.554s1.263-32.162.945-32.928,24.307-3.592,43.386,1.243,27.43,18.793,28.511,27.749,1.736,21.639-3.977,33.41-20.961,19.388-30.111,21.075S222.532,283.98,221.047,282.867Z" transform="matrix(1, -0.017, 0.017, 1, 0.1, 19.346)" fill="#fff" stroke="#fff" stroke-width="1"/>
</svg>
